<mxfile host="app.diagrams.net" modified="2024-04-01T11:23:00.211Z" agent="Mozilla/5.0 (Windows NT 10.0; Win64; x64) AppleWebKit/537.36 (KHTML, like Gecko) Chrome/123.0.0.0 Safari/537.36" etag="aJw4hN5xD73OQc6LUPKv" version="24.2.0" type="google">
  <diagram name="Страница — 1" id="DrC6itlI2cONfq5Rpkv5">
    <mxGraphModel grid="1" page="1" gridSize="10" guides="1" tooltips="1" connect="1" arrows="1" fold="1" pageScale="1" pageWidth="827" pageHeight="1169" math="0" shadow="0">
      <root>
        <mxCell id="0" />
        <mxCell id="1" parent="0" />
        <mxCell id="eom9l713G-quYEhs3-fp-2" value="&lt;font style=&quot;font-size: 18px;&quot; face=&quot;Times New Roman&quot;&gt;Задача: Написать программу, которая из имеющегося массива строк формирует новый массив из строк, длина которых меньше, либо равна 3 символам.&amp;nbsp;&lt;br&gt;Первоначальный массив можно ввести с клавиатуры, либо задать на старте выполнения алгоритма.&lt;br&gt;При решении не рекомендуется пользоваться коллекциями, лучше обойтись исключительно массивами.&lt;/font&gt;" style="text;html=1;align=center;verticalAlign=middle;resizable=0;points=[];autosize=1;strokeColor=none;fillColor=none;" vertex="1" parent="1">
          <mxGeometry x="-620" width="1190" height="80" as="geometry" />
        </mxCell>
        <mxCell id="eom9l713G-quYEhs3-fp-5" value="" style="edgeStyle=orthogonalEdgeStyle;rounded=0;orthogonalLoop=1;jettySize=auto;html=1;" edge="1" parent="1" source="eom9l713G-quYEhs3-fp-3" target="eom9l713G-quYEhs3-fp-4">
          <mxGeometry relative="1" as="geometry" />
        </mxCell>
        <mxCell id="eom9l713G-quYEhs3-fp-3" value="&lt;font style=&quot;font-size: 14px;&quot;&gt;Start&lt;/font&gt;" style="ellipse;whiteSpace=wrap;html=1;" vertex="1" parent="1">
          <mxGeometry x="-110" y="80" width="220" height="70" as="geometry" />
        </mxCell>
        <mxCell id="eom9l713G-quYEhs3-fp-7" value="" style="edgeStyle=orthogonalEdgeStyle;rounded=0;orthogonalLoop=1;jettySize=auto;html=1;" edge="1" parent="1" source="eom9l713G-quYEhs3-fp-4" target="eom9l713G-quYEhs3-fp-6">
          <mxGeometry relative="1" as="geometry" />
        </mxCell>
        <mxCell id="eom9l713G-quYEhs3-fp-4" value="&lt;font style=&quot;font-size: 14px;&quot;&gt;Создаем метод для разделения строки из консоли в массив по знаку &quot; , &quot;&lt;/font&gt;" style="whiteSpace=wrap;html=1;" vertex="1" parent="1">
          <mxGeometry x="-280" y="180" width="560" height="50" as="geometry" />
        </mxCell>
        <mxCell id="eom9l713G-quYEhs3-fp-9" value="" style="edgeStyle=orthogonalEdgeStyle;rounded=0;orthogonalLoop=1;jettySize=auto;html=1;" edge="1" parent="1" source="eom9l713G-quYEhs3-fp-6" target="eom9l713G-quYEhs3-fp-8">
          <mxGeometry relative="1" as="geometry" />
        </mxCell>
        <mxCell id="eom9l713G-quYEhs3-fp-6" value="&lt;font style=&quot;font-size: 14px;&quot;&gt;Создаем метод сортирующий символы из массива. Сначала отсчитываем количество, удовлетворяющих требований, для определения длины нового массива. Создаем массив по выясненному количеству и заносим туда символы удовлетворяющие требованиям.&lt;/font&gt;" style="whiteSpace=wrap;html=1;" vertex="1" parent="1">
          <mxGeometry x="-400" y="250" width="800" height="100" as="geometry" />
        </mxCell>
        <mxCell id="eom9l713G-quYEhs3-fp-12" value="" style="edgeStyle=orthogonalEdgeStyle;rounded=0;orthogonalLoop=1;jettySize=auto;html=1;" edge="1" parent="1" source="eom9l713G-quYEhs3-fp-8" target="eom9l713G-quYEhs3-fp-11">
          <mxGeometry relative="1" as="geometry" />
        </mxCell>
        <mxCell id="eom9l713G-quYEhs3-fp-8" value="&lt;font style=&quot;font-size: 14px;&quot;&gt;Создаем метод для вывода информации из массивов с использованием циклического вывода каждого элемента массива.&lt;/font&gt;" style="whiteSpace=wrap;html=1;" vertex="1" parent="1">
          <mxGeometry x="-400" y="380" width="800" height="80" as="geometry" />
        </mxCell>
        <mxCell id="eom9l713G-quYEhs3-fp-14" value="" style="edgeStyle=orthogonalEdgeStyle;rounded=0;orthogonalLoop=1;jettySize=auto;html=1;" edge="1" parent="1" source="eom9l713G-quYEhs3-fp-11" target="eom9l713G-quYEhs3-fp-13">
          <mxGeometry relative="1" as="geometry" />
        </mxCell>
        <mxCell id="eom9l713G-quYEhs3-fp-11" value="&lt;font style=&quot;font-size: 14px;&quot;&gt;Выводим поясняющую информационную строку для пользователя в консоли: &quot;Введите набор символов через знак ( , ) - &quot;&amp;nbsp;&lt;br&gt;&quot;Введите набор символов через знак ( , ) - &quot;&lt;/font&gt;" style="shape=document;whiteSpace=wrap;html=1;boundedLbl=1;" vertex="1" parent="1">
          <mxGeometry x="-410" y="500" width="820" height="110" as="geometry" />
        </mxCell>
        <mxCell id="eom9l713G-quYEhs3-fp-16" value="" style="edgeStyle=orthogonalEdgeStyle;rounded=0;orthogonalLoop=1;jettySize=auto;html=1;" edge="1" parent="1" source="eom9l713G-quYEhs3-fp-13" target="eom9l713G-quYEhs3-fp-15">
          <mxGeometry relative="1" as="geometry" />
        </mxCell>
        <mxCell id="eom9l713G-quYEhs3-fp-13" value="&lt;font style=&quot;font-size: 14px;&quot;&gt;Присваиваем введенное в консоли от пользователя символы string inStringSimvol = console.ReadLine ( )&lt;/font&gt;" style="shape=parallelogram;perimeter=parallelogramPerimeter;whiteSpace=wrap;html=1;fixedSize=1;" vertex="1" parent="1">
          <mxGeometry x="-365" y="630" width="730" height="70" as="geometry" />
        </mxCell>
        <mxCell id="eom9l713G-quYEhs3-fp-18" value="" style="edgeStyle=orthogonalEdgeStyle;rounded=0;orthogonalLoop=1;jettySize=auto;html=1;" edge="1" parent="1" source="eom9l713G-quYEhs3-fp-15" target="eom9l713G-quYEhs3-fp-17">
          <mxGeometry relative="1" as="geometry" />
        </mxCell>
        <mxCell id="eom9l713G-quYEhs3-fp-15" value="Присваиваем массиву преобразованную строку через метод string [ ] arraySimvol = GetArrayStringConsole(inStringSimvol)" style="shape=parallelogram;perimeter=parallelogramPerimeter;whiteSpace=wrap;html=1;fixedSize=1;" vertex="1" parent="1">
          <mxGeometry x="-370" y="740" width="740" height="70" as="geometry" />
        </mxCell>
        <mxCell id="eom9l713G-quYEhs3-fp-20" value="" style="edgeStyle=orthogonalEdgeStyle;rounded=0;orthogonalLoop=1;jettySize=auto;html=1;" edge="1" parent="1" source="eom9l713G-quYEhs3-fp-17" target="eom9l713G-quYEhs3-fp-19">
          <mxGeometry relative="1" as="geometry" />
        </mxCell>
        <mxCell id="eom9l713G-quYEhs3-fp-17" value="&lt;div&gt;&lt;font style=&quot;font-size: 14px;&quot;&gt;&lt;br&gt;&lt;/font&gt;&lt;/div&gt;&lt;font style=&quot;font-size: 16px;&quot;&gt;&lt;div style=&quot;&quot;&gt;&lt;span style=&quot;background-color: initial;&quot;&gt;Console.WriteLine( ) ;&lt;/span&gt;&lt;br&gt;&lt;/div&gt;Console.Write ( &quot;Введенные символы - &quot; ) ;&lt;br&gt;Print ( GetArrayStringConsole ( inStringSimvol ) ) ;&lt;br&gt;Console.WriteLine ( ) ;&lt;/font&gt;&lt;div&gt;&lt;font size=&quot;3&quot;&gt;Console.Write ( &quot; Введенные символы длиной меньше либо равны 3 - &quot; ) ;&lt;br&gt;Print ( GetArrayThreeSimvol (arraySimvol ) );&lt;br&gt;Console.WriteLine ( ) ;&lt;br&gt;&lt;/font&gt;&lt;br&gt;&lt;/div&gt;" style="shape=document;whiteSpace=wrap;html=1;boundedLbl=1;" vertex="1" parent="1">
          <mxGeometry x="-400" y="840" width="800" height="210" as="geometry" />
        </mxCell>
        <mxCell id="eom9l713G-quYEhs3-fp-19" value="&lt;font style=&quot;font-size: 14px;&quot;&gt;End&lt;/font&gt;" style="ellipse;whiteSpace=wrap;html=1;" vertex="1" parent="1">
          <mxGeometry x="-90" y="1070" width="180" height="80" as="geometry" />
        </mxCell>
      </root>
    </mxGraphModel>
  </diagram>
</mxfile>
